# xmcd CD database file
# Copyright (C) 1993-1998 Ti Kan
# 
# Track frame offsets:
#     150
#     16800
#     33305
#     53615
#     69475
#     85570
#     104075
#     119690
#     136735
#     156145
#     172265
#     188990
#     205960
#     219920
#     234495
# 
# Disc length: 3310 seconds
# 
# Revision: 1
# Processed by: cddbd v1.4b41PL1 Copyright (c) Steve Scherf et al.
# Submitted via: DiscPlay 4.0.4
# 
DISCID=cc0cec0f
DTITLE=Cleiton and Camargo - Pense com Cora  o
DYEAR=1900
DGENRE=
TTITLE0=Amor por Correspond ncia
TTITLE1=Hoje Eu Vou Tomar Todas
TTITLE2=Quando um Grande Amor se Faz
TTITLE3=Louca
TTITLE4=Negue se For Capaz
TTITLE5=Pense com Cora  o
TTITLE6=Outra Chance
TTITLE7=Me Acertou em Cheio
TTITLE8=N o Est  Aqui Sua Felicidade
TTITLE9=Em Mil Peda os
TTITLE10=Volta a Fita
TTITLE11=Promessas de Amor
TTITLE12=Rodeio de Fogo
TTITLE13=Seu Amor Sou Eu
TTITLE14=Correndo Atr s
EXTD=
EXTT0=
EXTT1=
EXTT2=
EXTT3=
EXTT4=
EXTT5=
EXTT6=
EXTT7=
EXTT8=
EXTT9=
EXTT10=
EXTT11=
EXTT12=
EXTT13=
EXTT14=
PLAYORDER=
